<svg width="39" height="39" viewBox="0 0 39 39" fill="none" xmlns="http://www.w3.org/2000/svg">
<path d="M19.5 36C22.6289 36 25.5544 35.1291 28.0472 33.6165C28.8088 34.3424 29.629 35.0074 30.5 35.6035C27.3688 37.7465 23.5808 39 19.5 39C16.4105 39 13.4889 38.2815 10.893 37.0026C11.8645 36.3894 12.7781 35.6929 13.6238 34.9229C15.4493 35.6189 17.4301 36 19.5 36Z" fill="white"/>
<path d="M9.2926 6.53537C5.46027 9.55682 3 14.2411 3 19.5C3 25.3806 6.07631 30.5426 10.7074 33.4646C9.85564 34.1362 8.9361 34.7256 7.96073 35.2209C3.13308 31.6714 0 25.9516 0 19.5C0 13.7847 2.45876 8.64371 6.37621 5.07705C7.40124 5.46782 8.37729 5.95784 9.2926 6.53537Z" fill="white"/>
<path d="M12.0393 4.77912C14.2798 3.64132 16.815 3 19.5 3C22.6289 3 25.5544 3.87091 28.0472 5.38353C28.8088 4.65758 29.629 3.99263 30.5 3.3965C27.3688 1.25351 23.5808 0 19.5 0C15.6795 0 12.1156 1.09873 9.107 2.99744C10.1392 3.50602 11.12 4.10322 12.0393 4.77912Z" fill="white"/>
<path d="M32.9528 33.6165C32.0787 33.0861 31.2578 32.4768 30.5 31.7986C33.8756 28.7773 36 24.3867 36 19.5C36 14.6133 33.8756 10.2227 30.5 7.20142C31.2578 6.52315 32.0787 5.9139 32.9528 5.38353C36.6784 8.93507 39 13.9464 39 19.5C39 25.0536 36.6784 30.0649 32.9528 33.6165Z" fill="white"/>
</svg>
