<svg width="82" height="23" viewBox="0 0 82 23" fill="none" xmlns="http://www.w3.org/2000/svg">
<path d="M10 20.4615C11.6046 20.4615 13.1048 20.0149 14.3832 19.2392C14.7737 19.6115 15.1943 19.9525 15.641 20.2582C14.0353 21.3572 12.0927 22 10 22C8.41566 22 6.91737 21.6316 5.58615 20.9757C6.08437 20.6612 6.55289 20.304 6.98656 19.9092C7.9227 20.2661 8.93853 20.4615 10 20.4615Z" fill="white"/>
<path d="M4.76544 5.35147C2.80014 6.90093 1.53846 9.30313 1.53846 12C1.53846 15.0157 3.11605 17.6629 5.49097 19.1614C5.05417 19.5057 4.58262 19.808 4.08243 20.062C1.60671 18.2417 0 15.3085 0 12C0 9.06909 1.2609 6.43267 3.26985 4.60362C3.79551 4.80401 4.29605 5.0553 4.76544 5.35147Z" fill="white"/>
<path d="M6.17398 4.45083C7.323 3.86734 8.62309 3.53846 10 3.53846C11.6046 3.53846 13.1048 3.98508 14.3832 4.76079C14.7737 4.3885 15.1943 4.0475 15.641 3.7418C14.0353 2.64283 12.0927 2 10 2C8.04075 2 6.21311 2.56345 4.67026 3.53715C5.19961 3.79796 5.70255 4.10422 6.17398 4.45083Z" fill="white"/>
<path d="M16.8989 19.2392C16.4506 18.9672 16.0297 18.6548 15.641 18.307C17.3721 16.7576 18.4615 14.506 18.4615 12C18.4615 9.49398 17.3721 7.2424 15.641 5.69303C16.0297 5.34521 16.4506 5.03277 16.8989 4.76079C18.8094 6.58209 20 9.15201 20 12C20 14.848 18.8094 17.4179 16.8989 19.2392Z" fill="white"/>
<path d="M26.02 17V6.5H28.3L31.645 13.16L34.945 6.5H37.225V17H35.305V9.755L32.38 15.5H30.865L27.94 9.755V17H26.02ZM40.2522 8.405C39.9022 8.405 39.6122 8.3 39.3822 8.09C39.1622 7.88 39.0522 7.615 39.0522 7.295C39.0522 6.975 39.1622 6.715 39.3822 6.515C39.6122 6.305 39.9022 6.2 40.2522 6.2C40.6022 6.2 40.8872 6.305 41.1072 6.515C41.3372 6.715 41.4522 6.975 41.4522 7.295C41.4522 7.615 41.3372 7.88 41.1072 8.09C40.8872 8.3 40.6022 8.405 40.2522 8.405ZM39.2922 17V9.56H41.2122V17H39.2922ZM43.2162 17V9.56H44.9262L45.1062 10.955C45.3762 10.475 45.7412 10.095 46.2012 9.815C46.6712 9.525 47.2212 9.38 47.8512 9.38V11.405H47.3112C46.8912 11.405 46.5162 11.47 46.1862 11.6C45.8562 11.73 45.5962 11.955 45.4062 12.275C45.2262 12.595 45.1362 13.04 45.1362 13.61V17H43.2162ZM50.1985 8.405C49.8485 8.405 49.5585 8.3 49.3285 8.09C49.1085 7.88 48.9985 7.615 48.9985 7.295C48.9985 6.975 49.1085 6.715 49.3285 6.515C49.5585 6.305 49.8485 6.2 50.1985 6.2C50.5485 6.2 50.8335 6.305 51.0535 6.515C51.2835 6.715 51.3985 6.975 51.3985 7.295C51.3985 7.615 51.2835 7.88 51.0535 8.09C50.8335 8.3 50.5485 8.405 50.1985 8.405ZM49.2385 17V9.56H51.1585V17H49.2385ZM54.6175 17L52.4425 9.56H54.3475L55.6375 14.915L57.1375 9.56H59.2675L60.7675 14.915L62.0725 9.56H63.9775L61.7875 17H59.7925L58.2025 11.435L56.6125 17H54.6175ZM67.373 17.18C66.733 17.18 66.208 17.08 65.798 16.88C65.388 16.67 65.083 16.395 64.883 16.055C64.683 15.715 64.583 15.34 64.583 14.93C64.583 14.24 64.853 13.68 65.393 13.25C65.933 12.82 66.743 12.605 67.823 12.605H69.713V12.425C69.713 11.915 69.568 11.54 69.278 11.3C68.988 11.06 68.628 10.94 68.198 10.94C67.808 10.94 67.468 11.035 67.178 11.225C66.888 11.405 66.708 11.675 66.638 12.035H64.763C64.813 11.495 64.993 11.025 65.303 10.625C65.623 10.225 66.033 9.92 66.533 9.71C67.033 9.49 67.593 9.38 68.213 9.38C69.273 9.38 70.108 9.645 70.718 10.175C71.328 10.705 71.633 11.455 71.633 12.425V17H69.998L69.818 15.8C69.598 16.2 69.288 16.53 68.888 16.79C68.498 17.05 67.993 17.18 67.373 17.18ZM67.808 15.68C68.358 15.68 68.783 15.5 69.083 15.14C69.393 14.78 69.588 14.335 69.668 13.805H68.033C67.523 13.805 67.158 13.9 66.938 14.09C66.718 14.27 66.608 14.495 66.608 14.765C66.608 15.055 66.718 15.28 66.938 15.44C67.158 15.6 67.448 15.68 67.808 15.68ZM74.1462 20.3L75.8712 16.505H75.4212L72.5262 9.56H74.6112L76.6962 14.795L78.8712 9.56H80.9112L76.1862 20.3H74.1462Z" fill="white"/>
</svg>
